<mxfile host="app.diagrams.net" modified="2023-01-02T15:21:00.156Z" agent="5.0 (Windows NT 10.0; Win64; x64) AppleWebKit/537.36 (KHTML, like Gecko) Chrome/108.0.0.0 Safari/537.36 Edg/108.0.1462.54" etag="OoEkgX7yirFvvc5lpxVi" version="20.7.4" type="github" pages="2">
  <diagram id="C5RBs43oDa-KdzZeNtuy" name="Page-1">
    <mxGraphModel dx="794" dy="470" grid="1" gridSize="10" guides="1" tooltips="1" connect="1" arrows="1" fold="1" page="1" pageScale="1" pageWidth="827" pageHeight="1169" math="0" shadow="0">
      <root>
        <mxCell id="WIyWlLk6GJQsqaUBKTNV-0" />
        <mxCell id="WIyWlLk6GJQsqaUBKTNV-1" parent="WIyWlLk6GJQsqaUBKTNV-0" />
        <mxCell id="Nkn40ixXSRU_tC7gdVZO-2" value="" style="edgeStyle=orthogonalEdgeStyle;rounded=0;orthogonalLoop=1;jettySize=auto;html=1;" edge="1" parent="WIyWlLk6GJQsqaUBKTNV-1" source="WIyWlLk6GJQsqaUBKTNV-3" target="Nkn40ixXSRU_tC7gdVZO-1">
          <mxGeometry relative="1" as="geometry" />
        </mxCell>
        <mxCell id="WIyWlLk6GJQsqaUBKTNV-3" value="App configurator si connette all&#39;Edge Master" style="rounded=1;whiteSpace=wrap;html=1;fontSize=12;glass=0;strokeWidth=1;shadow=0;" parent="WIyWlLk6GJQsqaUBKTNV-1" vertex="1">
          <mxGeometry x="155" y="70" width="150" height="50" as="geometry" />
        </mxCell>
        <mxCell id="WIyWlLk6GJQsqaUBKTNV-5" value="No" style="edgeStyle=orthogonalEdgeStyle;rounded=0;jettySize=auto;orthogonalLoop=1;fontSize=11;endArrow=block;endFill=0;endSize=8;strokeWidth=1;shadow=0;labelBackgroundColor=none;html=1;" parent="WIyWlLk6GJQsqaUBKTNV-1" source="WIyWlLk6GJQsqaUBKTNV-6" target="WIyWlLk6GJQsqaUBKTNV-7" edge="1">
          <mxGeometry y="10" relative="1" as="geometry">
            <mxPoint as="offset" />
          </mxGeometry>
        </mxCell>
        <mxCell id="WIyWlLk6GJQsqaUBKTNV-6" value="Check &lt;br&gt;versione ok?" style="rhombus;whiteSpace=wrap;html=1;shadow=0;fontFamily=Helvetica;fontSize=12;align=center;strokeWidth=1;spacing=6;spacingTop=-4;" parent="WIyWlLk6GJQsqaUBKTNV-1" vertex="1">
          <mxGeometry x="182.5" y="260" width="95" height="80" as="geometry" />
        </mxCell>
        <mxCell id="Nkn40ixXSRU_tC7gdVZO-7" style="edgeStyle=orthogonalEdgeStyle;rounded=0;orthogonalLoop=1;jettySize=auto;html=1;exitX=1;exitY=0.5;exitDx=0;exitDy=0;entryX=1;entryY=0.5;entryDx=0;entryDy=0;" edge="1" parent="WIyWlLk6GJQsqaUBKTNV-1" source="WIyWlLk6GJQsqaUBKTNV-7" target="WIyWlLk6GJQsqaUBKTNV-11">
          <mxGeometry relative="1" as="geometry" />
        </mxCell>
        <mxCell id="WIyWlLk6GJQsqaUBKTNV-7" value="Edge Master &lt;br&gt;risponde NACK" style="rounded=1;whiteSpace=wrap;html=1;fontSize=12;glass=0;strokeWidth=1;shadow=0;" parent="WIyWlLk6GJQsqaUBKTNV-1" vertex="1">
          <mxGeometry x="354" y="280" width="120" height="40" as="geometry" />
        </mxCell>
        <mxCell id="Nkn40ixXSRU_tC7gdVZO-30" style="edgeStyle=orthogonalEdgeStyle;rounded=0;orthogonalLoop=1;jettySize=auto;html=1;exitX=0.5;exitY=1;exitDx=0;exitDy=0;endArrow=classic;endFill=1;" edge="1" parent="WIyWlLk6GJQsqaUBKTNV-1" source="WIyWlLk6GJQsqaUBKTNV-11" target="Nkn40ixXSRU_tC7gdVZO-31">
          <mxGeometry relative="1" as="geometry">
            <mxPoint x="230" y="944.5" as="targetPoint" />
          </mxGeometry>
        </mxCell>
        <mxCell id="WIyWlLk6GJQsqaUBKTNV-11" value="App Configurator chiude la connesione" style="rounded=1;whiteSpace=wrap;html=1;fontSize=12;glass=0;strokeWidth=1;shadow=0;" parent="WIyWlLk6GJQsqaUBKTNV-1" vertex="1">
          <mxGeometry x="160" y="800" width="140" height="40" as="geometry" />
        </mxCell>
        <mxCell id="Nkn40ixXSRU_tC7gdVZO-3" value="" style="edgeStyle=orthogonalEdgeStyle;rounded=0;orthogonalLoop=1;jettySize=auto;html=1;" edge="1" parent="WIyWlLk6GJQsqaUBKTNV-1" source="Nkn40ixXSRU_tC7gdVZO-1" target="WIyWlLk6GJQsqaUBKTNV-6">
          <mxGeometry relative="1" as="geometry" />
        </mxCell>
        <mxCell id="Nkn40ixXSRU_tC7gdVZO-1" value="Invio comando check versione" style="rounded=1;whiteSpace=wrap;html=1;fontSize=12;glass=0;strokeWidth=1;shadow=0;" vertex="1" parent="WIyWlLk6GJQsqaUBKTNV-1">
          <mxGeometry x="155" y="160" width="150" height="50" as="geometry" />
        </mxCell>
        <mxCell id="Nkn40ixXSRU_tC7gdVZO-17" style="edgeStyle=orthogonalEdgeStyle;rounded=0;orthogonalLoop=1;jettySize=auto;html=1;exitX=0.5;exitY=1;exitDx=0;exitDy=0;entryX=0.5;entryY=0;entryDx=0;entryDy=0;" edge="1" parent="WIyWlLk6GJQsqaUBKTNV-1" source="Nkn40ixXSRU_tC7gdVZO-10" target="Nkn40ixXSRU_tC7gdVZO-18">
          <mxGeometry relative="1" as="geometry">
            <mxPoint x="230" y="620" as="targetPoint" />
          </mxGeometry>
        </mxCell>
        <mxCell id="Nkn40ixXSRU_tC7gdVZO-10" value="App Configurator invia &lt;br&gt;file deploy.zip" style="rounded=1;whiteSpace=wrap;html=1;fontSize=12;glass=0;strokeWidth=1;shadow=0;" vertex="1" parent="WIyWlLk6GJQsqaUBKTNV-1">
          <mxGeometry x="160" y="490" width="140" height="40" as="geometry" />
        </mxCell>
        <mxCell id="Nkn40ixXSRU_tC7gdVZO-14" value="Yes" style="rounded=0;html=1;jettySize=auto;orthogonalLoop=1;fontSize=11;endArrow=block;endFill=0;endSize=8;strokeWidth=1;shadow=0;labelBackgroundColor=none;edgeStyle=orthogonalEdgeStyle;exitX=0.5;exitY=1;exitDx=0;exitDy=0;entryX=0.5;entryY=0;entryDx=0;entryDy=0;" edge="1" parent="WIyWlLk6GJQsqaUBKTNV-1" source="WIyWlLk6GJQsqaUBKTNV-6" target="Nkn40ixXSRU_tC7gdVZO-15">
          <mxGeometry y="20" relative="1" as="geometry">
            <mxPoint as="offset" />
            <mxPoint x="230" y="370" as="sourcePoint" />
            <mxPoint x="230" y="440" as="targetPoint" />
          </mxGeometry>
        </mxCell>
        <mxCell id="Nkn40ixXSRU_tC7gdVZO-16" style="edgeStyle=orthogonalEdgeStyle;rounded=0;orthogonalLoop=1;jettySize=auto;html=1;exitX=0.5;exitY=1;exitDx=0;exitDy=0;entryX=0.5;entryY=0;entryDx=0;entryDy=0;" edge="1" parent="WIyWlLk6GJQsqaUBKTNV-1" source="Nkn40ixXSRU_tC7gdVZO-15" target="Nkn40ixXSRU_tC7gdVZO-10">
          <mxGeometry relative="1" as="geometry" />
        </mxCell>
        <mxCell id="Nkn40ixXSRU_tC7gdVZO-15" value="Edge Master risponde ACK" style="rounded=1;whiteSpace=wrap;html=1;fontSize=12;glass=0;strokeWidth=1;shadow=0;" vertex="1" parent="WIyWlLk6GJQsqaUBKTNV-1">
          <mxGeometry x="160" y="400" width="140" height="40" as="geometry" />
        </mxCell>
        <mxCell id="Nkn40ixXSRU_tC7gdVZO-18" value="Edge Master &lt;br&gt;elabora correttamente il file deploy.zip?" style="rhombus;whiteSpace=wrap;html=1;shadow=0;fontFamily=Helvetica;fontSize=12;align=center;strokeWidth=1;spacing=6;spacingTop=-4;" vertex="1" parent="WIyWlLk6GJQsqaUBKTNV-1">
          <mxGeometry x="156.25" y="584.5" width="147.5" height="90" as="geometry" />
        </mxCell>
        <mxCell id="Nkn40ixXSRU_tC7gdVZO-19" value="No" style="edgeStyle=orthogonalEdgeStyle;rounded=0;jettySize=auto;orthogonalLoop=1;fontSize=11;endArrow=block;endFill=0;endSize=8;strokeWidth=1;shadow=0;labelBackgroundColor=none;html=1;exitX=1;exitY=0.5;exitDx=0;exitDy=0;entryX=0.5;entryY=0;entryDx=0;entryDy=0;" edge="1" parent="WIyWlLk6GJQsqaUBKTNV-1" source="Nkn40ixXSRU_tC7gdVZO-18" target="Nkn40ixXSRU_tC7gdVZO-20">
          <mxGeometry y="10" relative="1" as="geometry">
            <mxPoint as="offset" />
            <mxPoint x="287.5" y="348.5" as="sourcePoint" />
            <mxPoint x="410" y="629.5" as="targetPoint" />
          </mxGeometry>
        </mxCell>
        <mxCell id="Nkn40ixXSRU_tC7gdVZO-29" style="edgeStyle=orthogonalEdgeStyle;rounded=0;orthogonalLoop=1;jettySize=auto;html=1;exitX=0.5;exitY=1;exitDx=0;exitDy=0;entryX=0.5;entryY=0;entryDx=0;entryDy=0;endArrow=classic;endFill=1;" edge="1" parent="WIyWlLk6GJQsqaUBKTNV-1" source="Nkn40ixXSRU_tC7gdVZO-20" target="WIyWlLk6GJQsqaUBKTNV-11">
          <mxGeometry relative="1" as="geometry" />
        </mxCell>
        <mxCell id="Nkn40ixXSRU_tC7gdVZO-20" value="Edge Master &lt;br&gt;risponde NACK" style="rounded=1;whiteSpace=wrap;html=1;fontSize=12;glass=0;strokeWidth=1;shadow=0;" vertex="1" parent="WIyWlLk6GJQsqaUBKTNV-1">
          <mxGeometry x="325" y="704.5" width="120" height="40" as="geometry" />
        </mxCell>
        <mxCell id="Nkn40ixXSRU_tC7gdVZO-28" style="edgeStyle=orthogonalEdgeStyle;rounded=0;orthogonalLoop=1;jettySize=auto;html=1;entryX=0;entryY=0.5;entryDx=0;entryDy=0;endArrow=classic;endFill=1;exitX=0.5;exitY=1;exitDx=0;exitDy=0;" edge="1" parent="WIyWlLk6GJQsqaUBKTNV-1" source="Nkn40ixXSRU_tC7gdVZO-22" target="WIyWlLk6GJQsqaUBKTNV-11">
          <mxGeometry relative="1" as="geometry" />
        </mxCell>
        <mxCell id="Nkn40ixXSRU_tC7gdVZO-22" value="Edge Master &lt;br&gt;risponde ACK" style="rounded=1;whiteSpace=wrap;html=1;fontSize=12;glass=0;strokeWidth=1;shadow=0;" vertex="1" parent="WIyWlLk6GJQsqaUBKTNV-1">
          <mxGeometry x="20" y="704.5" width="120" height="40" as="geometry" />
        </mxCell>
        <mxCell id="Nkn40ixXSRU_tC7gdVZO-26" value="Yes" style="edgeStyle=orthogonalEdgeStyle;rounded=0;jettySize=auto;orthogonalLoop=1;fontSize=11;endArrow=block;endFill=0;endSize=8;strokeWidth=1;shadow=0;labelBackgroundColor=none;html=1;exitX=0;exitY=0.5;exitDx=0;exitDy=0;entryX=0.5;entryY=0;entryDx=0;entryDy=0;verticalAlign=bottom;" edge="1" parent="WIyWlLk6GJQsqaUBKTNV-1" source="Nkn40ixXSRU_tC7gdVZO-18" target="Nkn40ixXSRU_tC7gdVZO-22">
          <mxGeometry y="10" relative="1" as="geometry">
            <mxPoint as="offset" />
            <mxPoint x="313.75" y="639.5" as="sourcePoint" />
            <mxPoint x="395" y="714.5" as="targetPoint" />
            <Array as="points">
              <mxPoint x="80" y="629.5" />
            </Array>
          </mxGeometry>
        </mxCell>
        <mxCell id="Nkn40ixXSRU_tC7gdVZO-31" value="FINE" style="ellipse;whiteSpace=wrap;html=1;" vertex="1" parent="WIyWlLk6GJQsqaUBKTNV-1">
          <mxGeometry x="185" y="880" width="90" height="40" as="geometry" />
        </mxCell>
        <mxCell id="Nkn40ixXSRU_tC7gdVZO-36" value="" style="edgeStyle=orthogonalEdgeStyle;rounded=0;orthogonalLoop=1;jettySize=auto;html=1;endArrow=classic;endFill=1;" edge="1" parent="WIyWlLk6GJQsqaUBKTNV-1" source="Nkn40ixXSRU_tC7gdVZO-35" target="WIyWlLk6GJQsqaUBKTNV-3">
          <mxGeometry relative="1" as="geometry" />
        </mxCell>
        <mxCell id="Nkn40ixXSRU_tC7gdVZO-35" value="INIZIO" style="ellipse;whiteSpace=wrap;html=1;" vertex="1" parent="WIyWlLk6GJQsqaUBKTNV-1">
          <mxGeometry x="185" width="90" height="40" as="geometry" />
        </mxCell>
      </root>
    </mxGraphModel>
  </diagram>
  <diagram id="sNn5bzSAGO9p4KPn7kvP" name="Page-2">
    <mxGraphModel dx="794" dy="470" grid="1" gridSize="10" guides="1" tooltips="1" connect="1" arrows="1" fold="1" page="1" pageScale="1" pageWidth="850" pageHeight="1100" math="0" shadow="0">
      <root>
        <mxCell id="0" />
        <mxCell id="1" parent="0" />
        <mxCell id="lnMrBxuNPjSTEF1D7rmU-1" value="" style="edgeStyle=orthogonalEdgeStyle;rounded=0;orthogonalLoop=1;jettySize=auto;html=1;entryX=0.5;entryY=0;entryDx=0;entryDy=0;" edge="1" parent="1" source="lnMrBxuNPjSTEF1D7rmU-2" target="lnMrBxuNPjSTEF1D7rmU-12">
          <mxGeometry relative="1" as="geometry">
            <mxPoint x="230" y="160" as="targetPoint" />
          </mxGeometry>
        </mxCell>
        <mxCell id="lnMrBxuNPjSTEF1D7rmU-2" value="App configurator si connette all&#39;Edge Master" style="rounded=1;whiteSpace=wrap;html=1;fontSize=12;glass=0;strokeWidth=1;shadow=0;" vertex="1" parent="1">
          <mxGeometry x="150" y="80" width="150" height="50" as="geometry" />
        </mxCell>
        <mxCell id="lnMrBxuNPjSTEF1D7rmU-7" style="edgeStyle=orthogonalEdgeStyle;rounded=0;orthogonalLoop=1;jettySize=auto;html=1;exitX=0.5;exitY=1;exitDx=0;exitDy=0;endArrow=classic;endFill=1;" edge="1" parent="1" source="lnMrBxuNPjSTEF1D7rmU-8" target="lnMrBxuNPjSTEF1D7rmU-23">
          <mxGeometry relative="1" as="geometry">
            <mxPoint x="225" y="620" as="targetPoint" />
          </mxGeometry>
        </mxCell>
        <mxCell id="lnMrBxuNPjSTEF1D7rmU-8" value="App Configurator chiude la connesione" style="rounded=1;whiteSpace=wrap;html=1;fontSize=12;glass=0;strokeWidth=1;shadow=0;" vertex="1" parent="1">
          <mxGeometry x="155" y="475.5" width="140" height="40" as="geometry" />
        </mxCell>
        <mxCell id="lnMrBxuNPjSTEF1D7rmU-11" style="edgeStyle=orthogonalEdgeStyle;rounded=0;orthogonalLoop=1;jettySize=auto;html=1;exitX=0.5;exitY=1;exitDx=0;exitDy=0;entryX=0.5;entryY=0;entryDx=0;entryDy=0;" edge="1" parent="1" source="lnMrBxuNPjSTEF1D7rmU-12" target="lnMrBxuNPjSTEF1D7rmU-16">
          <mxGeometry relative="1" as="geometry">
            <mxPoint x="227.5" y="340" as="targetPoint" />
          </mxGeometry>
        </mxCell>
        <mxCell id="lnMrBxuNPjSTEF1D7rmU-12" value="App Configurator invia &lt;br&gt;file deploy.zip" style="rounded=1;whiteSpace=wrap;html=1;fontSize=12;glass=0;strokeWidth=1;shadow=0;" vertex="1" parent="1">
          <mxGeometry x="155" y="170" width="140" height="40" as="geometry" />
        </mxCell>
        <mxCell id="lnMrBxuNPjSTEF1D7rmU-16" value="Edge Master &lt;br&gt;elabora correttamente il file deploy.zip?" style="rhombus;whiteSpace=wrap;html=1;shadow=0;fontFamily=Helvetica;fontSize=12;align=center;strokeWidth=1;spacing=6;spacingTop=-4;" vertex="1" parent="1">
          <mxGeometry x="130" y="260" width="190" height="90" as="geometry" />
        </mxCell>
        <mxCell id="lnMrBxuNPjSTEF1D7rmU-17" value="No" style="edgeStyle=orthogonalEdgeStyle;rounded=0;jettySize=auto;orthogonalLoop=1;fontSize=11;endArrow=block;endFill=0;endSize=8;strokeWidth=1;shadow=0;labelBackgroundColor=none;html=1;exitX=1;exitY=0.5;exitDx=0;exitDy=0;entryX=0.5;entryY=0;entryDx=0;entryDy=0;" edge="1" parent="1" source="lnMrBxuNPjSTEF1D7rmU-16" target="lnMrBxuNPjSTEF1D7rmU-19">
          <mxGeometry y="10" relative="1" as="geometry">
            <mxPoint as="offset" />
            <mxPoint x="282.5" y="24" as="sourcePoint" />
            <mxPoint x="405" y="305" as="targetPoint" />
          </mxGeometry>
        </mxCell>
        <mxCell id="lnMrBxuNPjSTEF1D7rmU-18" style="edgeStyle=orthogonalEdgeStyle;rounded=0;orthogonalLoop=1;jettySize=auto;html=1;exitX=0.5;exitY=1;exitDx=0;exitDy=0;entryX=0.5;entryY=0;entryDx=0;entryDy=0;endArrow=classic;endFill=1;" edge="1" parent="1" source="lnMrBxuNPjSTEF1D7rmU-19" target="lnMrBxuNPjSTEF1D7rmU-8">
          <mxGeometry relative="1" as="geometry" />
        </mxCell>
        <mxCell id="lnMrBxuNPjSTEF1D7rmU-19" value="Edge Master &lt;br&gt;risponde NACK con messaggio di errore specifico" style="rounded=1;whiteSpace=wrap;html=1;fontSize=12;glass=0;strokeWidth=1;shadow=0;" vertex="1" parent="1">
          <mxGeometry x="320" y="350" width="120" height="70" as="geometry" />
        </mxCell>
        <mxCell id="lnMrBxuNPjSTEF1D7rmU-20" style="edgeStyle=orthogonalEdgeStyle;rounded=0;orthogonalLoop=1;jettySize=auto;html=1;entryX=0;entryY=0.5;entryDx=0;entryDy=0;endArrow=classic;endFill=1;exitX=0.5;exitY=1;exitDx=0;exitDy=0;" edge="1" parent="1" source="lnMrBxuNPjSTEF1D7rmU-21" target="lnMrBxuNPjSTEF1D7rmU-8">
          <mxGeometry relative="1" as="geometry" />
        </mxCell>
        <mxCell id="lnMrBxuNPjSTEF1D7rmU-21" value="Edge Master &lt;br&gt;risponde ACK" style="rounded=1;whiteSpace=wrap;html=1;fontSize=12;glass=0;strokeWidth=1;shadow=0;" vertex="1" parent="1">
          <mxGeometry x="20" y="365" width="120" height="40" as="geometry" />
        </mxCell>
        <mxCell id="lnMrBxuNPjSTEF1D7rmU-23" value="FINE" style="ellipse;whiteSpace=wrap;html=1;" vertex="1" parent="1">
          <mxGeometry x="180" y="555.5" width="90" height="40" as="geometry" />
        </mxCell>
        <mxCell id="lnMrBxuNPjSTEF1D7rmU-24" value="" style="edgeStyle=orthogonalEdgeStyle;rounded=0;orthogonalLoop=1;jettySize=auto;html=1;endArrow=classic;endFill=1;" edge="1" parent="1" source="lnMrBxuNPjSTEF1D7rmU-25" target="lnMrBxuNPjSTEF1D7rmU-2">
          <mxGeometry relative="1" as="geometry" />
        </mxCell>
        <mxCell id="lnMrBxuNPjSTEF1D7rmU-25" value="INIZIO" style="ellipse;whiteSpace=wrap;html=1;" vertex="1" parent="1">
          <mxGeometry x="180" width="90" height="40" as="geometry" />
        </mxCell>
        <mxCell id="lnMrBxuNPjSTEF1D7rmU-26" value="Yes" style="edgeStyle=orthogonalEdgeStyle;rounded=0;jettySize=auto;orthogonalLoop=1;fontSize=11;endArrow=block;endFill=0;endSize=8;strokeWidth=1;shadow=0;labelBackgroundColor=none;html=1;exitX=0;exitY=0.5;exitDx=0;exitDy=0;entryX=0.5;entryY=0;entryDx=0;entryDy=0;verticalAlign=middle;" edge="1" parent="1" source="lnMrBxuNPjSTEF1D7rmU-16" target="lnMrBxuNPjSTEF1D7rmU-21">
          <mxGeometry y="10" relative="1" as="geometry">
            <mxPoint as="offset" />
            <mxPoint x="15" y="305" as="sourcePoint" />
            <mxPoint x="75" y="380" as="targetPoint" />
          </mxGeometry>
        </mxCell>
      </root>
    </mxGraphModel>
  </diagram>
</mxfile>
